SplineFontDB: 3.2
FontName: GPixel_v1.0.0
FullName: GPixel
FamilyName: GPixel_v1.0.0
Weight: Regular
Copyright: Copyright (c) 2024, Raphael Grubbauer\n\nLicensed under the Grubbauer Open Source Media License (GOSML) v1.0.0.\nRefer to the file LICENSE_media.md in the root directory of the project for detailed terms and conditions.\n
UComments: "2024-10-6: Created with FontForge (http://fontforge.org)"
Version: 001.000
ItalicAngle: 0
UnderlinePosition: -100
UnderlineWidth: 50
Ascent: 800
Descent: 200
InvalidEm: 0
sfntRevision: 0x00010000
LayerCount: 2
Layer: 0 0 "Hinten" 1
Layer: 1 0 "Vorne" 0
XUID: [1021 623 387373151 1410]
StyleMap: 0x0000
FSType: 0
OS2Version: 0
OS2_WeightWidthSlopeOnly: 0
OS2_UseTypoMetrics: 1
CreationTime: 1728228413
ModificationTime: 1728668912
PfmFamily: 17
TTFWeight: 400
TTFWidth: 5
LineGap: 90
VLineGap: 0
OS2TypoAscent: 0
OS2TypoAOffset: 1
OS2TypoDescent: 0
OS2TypoDOffset: 1
OS2TypoLinegap: 90
OS2WinAscent: 0
OS2WinAOffset: 1
OS2WinDescent: 0
OS2WinDOffset: 1
HheadAscent: 0
HheadAOffset: 1
HheadDescent: 0
HheadDOffset: 1
OS2Vendor: 'PfEd'
MarkAttachClasses: 1
DEI: 91125
LangName: 1033
Encoding: ISO8859-1
UnicodeInterp: none
NameList: AGL For New Fonts
DisplaySize: -48
AntiAlias: 1
FitToEm: 0
WinInfo: 57 19 4
BeginPrivate: 0
EndPrivate
Grid
-1000 300 m 0
 2000 300 l 1024
  Named: "CenterVert"
-330.691772461 1300 m 0
 -330.691772461 -700 l 1024
  Named: "XS"
-338.191772461 1300 m 0
 -338.191772461 -700 l 1024
EndSplineSet
BeginChars: 257 93

StartChar: A
Encoding: 65 65 0
Width: 864
Flags: HW
LayerCount: 2
Fore
SplineSet
142.571289062 657.142578125 m 1
 142.571289062 800 l 1
 571.142578125 800 l 1
 571.142578125 657.142578125 l 1
 142.571289062 657.142578125 l 1
571.142578125 657.142578125 m 1
 714 657.142578125 l 1
 714 -200 l 1
 571.142578125 -200 l 1
 571.142578125 371.428710938 l 1
 142.571289062 371.428710938 l 1
 142.571289062 -200 l 1
 -0.2861328125 -200 l 1
 -0.2861328125 657.142578125 l 1
 142.571289062 657.142578125 l 1
 142.571289062 514.286132812 l 1
 571.142578125 514.286132812 l 1
 571.142578125 657.142578125 l 1
EndSplineSet
Validated: 524293
EndChar

StartChar: B
Encoding: 66 66 1
Width: 865
Flags: HW
LayerCount: 2
Fore
SplineSet
571.938476562 -56.9384765625 m 1
 571.938476562 372.24609375 l 1
 715 372.24609375 l 1
 715 -56.9384765625 l 1
 571.938476562 -56.9384765625 l 1
142.75390625 515.307617188 m 1
 571.938476562 515.307617188 l 1
 571.938476562 372.24609375 l 1
 142.75390625 372.24609375 l 1
 142.75390625 -56.9384765625 l 1
 571.938476562 -56.9384765625 l 1
 571.938476562 -200 l 1
 142.75390625 -200 l 1
 -0.3076171875 -200 l 1
 -0.3076171875 658.369140625 l 1
 -0.3076171875 800 l 1
 142.75390625 800 l 1
 571.938476562 800 l 1
 571.938476562 658.369140625 l 1
 142.75390625 658.369140625 l 1
 142.75390625 515.307617188 l 1
571.938476562 515.307617188 m 1
 571.938476562 658.369140625 l 1
 715 658.369140625 l 1
 715 515.307617188 l 1
 571.938476562 515.307617188 l 1
EndSplineSet
Validated: 524293
EndChar

StartChar: C
Encoding: 67 67 2
Width: 864
Flags: HW
LayerCount: 2
Fore
SplineSet
142.571289062 657.142578125 m 1
 142.571289062 800 l 1
 714 800 l 1
 714 657.142578125 l 1
 142.571289062 657.142578125 l 1
-0.2861328125 -57.142578125 m 1
 -0.2861328125 657.142578125 l 1
 142.571289062 657.142578125 l 1
 142.571289062 -57.142578125 l 1
 -0.2861328125 -57.142578125 l 1
142.571289062 -200 m 1
 142.571289062 -57.142578125 l 1
 714 -57.142578125 l 1
 714 -200 l 1
 142.571289062 -200 l 1
EndSplineSet
Validated: 524293
EndChar

StartChar: D
Encoding: 68 68 3
Width: 864
Flags: HW
LayerCount: 2
Fore
SplineSet
142.571289062 657.142578125 m 1
 142.571289062 -57.142578125 l 1
 571.142578125 -57.142578125 l 1
 571.142578125 -200 l 1
 142.571289062 -200 l 1
 -0.2861328125 -200 l 1
 -0.2861328125 800 l 1
 142.571289062 800 l 1
 571.142578125 800 l 1
 571.142578125 657.142578125 l 1
 142.571289062 657.142578125 l 1
571.142578125 -57.142578125 m 1
 571.142578125 657.142578125 l 1
 714 657.142578125 l 1
 714 -57.142578125 l 1
 571.142578125 -57.142578125 l 1
EndSplineSet
Validated: 524293
EndChar

StartChar: E
Encoding: 69 69 4
Width: 866
Flags: HW
LayerCount: 2
Fore
SplineSet
716 659.598632812 m 1
 142.934570312 659.598632812 l 1
 142.934570312 516.33203125 l 1
 572.733398438 516.33203125 l 1
 572.733398438 373.065429688 l 1
 142.934570312 373.065429688 l 1
 142.934570312 -56.7333984375 l 1
 716 -56.7333984375 l 1
 716 -200 l 1
 142.934570312 -200 l 1
 -0.33203125 -200 l 1
 -0.33203125 659.598632812 l 1
 -0.33203125 800 l 1
 716 800 l 1
 716 659.598632812 l 1
EndSplineSet
Validated: 1
EndChar

StartChar: F
Encoding: 70 70 5
Width: 864
Flags: HW
LayerCount: 2
Fore
SplineSet
714 657.142578125 m 1
 142.571289062 657.142578125 l 1
 142.571289062 514.286132812 l 1
 571.142578125 514.286132812 l 1
 571.142578125 371.428710938 l 1
 142.571289062 371.428710938 l 1
 142.571289062 -200 l 1
 -0.2861328125 -200 l 1
 -0.2861328125 657.142578125 l 1
 -0.2861328125 798.571289062 l 1
 -0.2861328125 800 l 1
 142.571289062 800 l 1
 142.571289062 798.571289062 l 1
 714 798.571289062 l 1
 714 657.142578125 l 1
EndSplineSet
Validated: 1
EndChar

StartChar: G
Encoding: 71 71 6
Width: 864
Flags: HW
LayerCount: 2
Fore
SplineSet
142.571289062 657.142578125 m 1
 142.571289062 800 l 1
 571.142578125 800 l 1
 571.142578125 657.142578125 l 1
 142.571289062 657.142578125 l 1
-0.2861328125 -57.142578125 m 1
 -0.2861328125 657.142578125 l 1
 142.571289062 657.142578125 l 1
 142.571289062 -57.142578125 l 1
 -0.2861328125 -57.142578125 l 1
142.571289062 -200 m 1
 142.571289062 -57.142578125 l 1
 571.142578125 -57.142578125 l 1
 571.142578125 -200 l 1
 142.571289062 -200 l 1
285.427734375 371.428710938 m 1
 714 371.428710938 l 1
 714 228.571289062 l 1
 714 -57.142578125 l 1
 571.142578125 -57.142578125 l 1
 571.142578125 228.571289062 l 1
 285.427734375 228.571289062 l 1
 285.427734375 371.428710938 l 1
EndSplineSet
Validated: 5
EndChar

StartChar: H
Encoding: 72 72 7
Width: 861
Flags: HW
LayerCount: 2
Fore
SplineSet
568.752929688 795.732421875 m 1
 711 795.732421875 l 1
 711 -200 l 1
 568.752929688 -200 l 1
 568.752929688 368.990234375 l 1
 142.009765625 368.990234375 l 1
 142.009765625 -200 l 1
 -0.2373046875 -200 l 1
 -0.2373046875 800 l 1
 142.009765625 800 l 1
 142.009765625 511.237304688 l 1
 568.752929688 511.237304688 l 1
 568.752929688 795.732421875 l 1
EndSplineSet
Validated: 1
EndChar

StartChar: I
Encoding: 73 73 8
Width: 579
Flags: HW
LayerCount: 2
Fore
SplineSet
429 657.142578125 m 1
 286.142578125 657.142578125 l 1
 286.142578125 -61.4287109375 l 1
 429 -61.4287109375 l 1
 429 -200 l 1
 286.142578125 -200 l 1
 143.286132812 -200 l 1
 0.4287109375 -200 l 1
 0.4287109375 -61.4287109375 l 1
 143.286132812 -61.4287109375 l 1
 143.286132812 657.142578125 l 1
 0.4287109375 657.142578125 l 1
 0.4287109375 798.571289062 l 1
 143.286132812 798.571289062 l 1
 143.286132812 800 l 1
 286.142578125 800 l 1
 286.142578125 798.571289062 l 1
 429 798.571289062 l 1
 429 657.142578125 l 1
EndSplineSet
Validated: 1
EndChar

StartChar: J
Encoding: 74 74 9
Width: 864
Flags: HW
LayerCount: 2
Fore
SplineSet
571.142578125 -57.142578125 m 1
 571.142578125 800 l 1
 714 800 l 1
 714 -57.142578125 l 1
 571.142578125 -57.142578125 l 1
142.571289062 -200 m 1
 142.571289062 -57.142578125 l 1
 571.142578125 -57.142578125 l 1
 571.142578125 -200 l 1
 142.571289062 -200 l 1
-0.2861328125 -57.142578125 m 1
 -0.2861328125 85.7138671875 l 1
 142.571289062 85.7138671875 l 1
 142.571289062 -57.142578125 l 1
 -0.2861328125 -57.142578125 l 1
EndSplineSet
Validated: 5
EndChar

StartChar: K
Encoding: 75 75 10
Width: 864
Flags: HW
LayerCount: 2
Fore
SplineSet
142.571289062 371.428710938 m 1
 285.427734375 371.428710938 l 1
 285.427734375 228.571289062 l 1
 142.571289062 228.571289062 l 1
 142.571289062 -200 l 1
 -0.2861328125 -200 l 1
 -0.2861328125 797.142578125 l 1
 142.571289062 797.142578125 l 1
 142.571289062 371.428710938 l 1
285.427734375 85.7138671875 m 1
 285.427734375 228.571289062 l 1
 428.28515625 228.571289062 l 1
 428.28515625 85.7138671875 l 1
 285.427734375 85.7138671875 l 1
428.28515625 -57.142578125 m 1
 428.28515625 85.7138671875 l 1
 571.142578125 85.7138671875 l 1
 571.142578125 -57.142578125 l 1
 428.28515625 -57.142578125 l 1
571.142578125 -200 m 1
 571.142578125 -57.142578125 l 1
 714 -57.142578125 l 1
 714 -200 l 1
 571.142578125 -200 l 1
285.427734375 371.428710938 m 1
 285.427734375 514.286132812 l 1
 428.28515625 514.286132812 l 1
 428.28515625 371.428710938 l 1
 285.427734375 371.428710938 l 1
428.28515625 514.286132812 m 1
 428.28515625 657.142578125 l 1
 571.142578125 657.142578125 l 1
 571.142578125 514.286132812 l 1
 428.28515625 514.286132812 l 1
571.142578125 657.142578125 m 1
 571.142578125 800 l 1
 714 800 l 1
 714 657.142578125 l 1
 571.142578125 657.142578125 l 1
EndSplineSet
Validated: 5
EndChar

StartChar: L
Encoding: 76 76 11
Width: 864
Flags: HW
LayerCount: 2
Fore
SplineSet
142.571289062 -57.142578125 m 1
 714 -57.142578125 l 1
 714 -200 l 1
 142.571289062 -200 l 1
 -0.2861328125 -200 l 1
 -0.2861328125 800 l 1
 142.571289062 800 l 1
 142.571289062 -57.142578125 l 1
EndSplineSet
Validated: 1
EndChar

StartChar: M
Encoding: 77 77 12
Width: 864
Flags: HW
LayerCount: 2
Fore
SplineSet
142.571289062 657.142578125 m 1
 285.427734375 657.142578125 l 1
 285.427734375 514.286132812 l 1
 142.571289062 514.286132812 l 1
 142.571289062 -200 l 1
 -0.2861328125 -200 l 1
 -0.2861328125 795.713867188 l 1
 142.571289062 795.713867188 l 1
 142.571289062 657.142578125 l 1
285.427734375 371.428710938 m 1
 285.427734375 514.286132812 l 1
 428.28515625 514.286132812 l 1
 428.28515625 371.428710938 l 1
 285.427734375 371.428710938 l 1
571.142578125 800 m 1
 714 800 l 1
 714 -200 l 1
 571.142578125 -200 l 1
 571.142578125 514.286132812 l 1
 428.28515625 514.286132812 l 1
 428.28515625 657.142578125 l 1
 571.142578125 657.142578125 l 1
 571.142578125 800 l 1
EndSplineSet
Validated: 5
EndChar

StartChar: N
Encoding: 78 78 13
Width: 863
Flags: HW
LayerCount: 2
Fore
SplineSet
142.38671875 655.919921875 m 1
 285.040039062 655.919921875 l 1
 285.040039062 513.266601562 l 1
 142.38671875 513.266601562 l 1
 142.38671875 -200 l 1
 -0.2666015625 -200 l 1
 -0.2666015625 800 l 1
 142.38671875 800 l 1
 142.38671875 655.919921875 l 1
285.040039062 370.61328125 m 1
 285.040039062 513.266601562 l 1
 427.693359375 513.266601562 l 1
 427.693359375 370.61328125 l 1
 285.040039062 370.61328125 l 1
570.346679688 800 m 1
 713 800 l 1
 713 -200 l 1
 570.346679688 -200 l 1
 570.346679688 227.959960938 l 1
 427.693359375 227.959960938 l 1
 427.693359375 370.61328125 l 1
 570.346679688 370.61328125 l 1
 570.346679688 800 l 1
EndSplineSet
Validated: 5
EndChar

StartChar: O
Encoding: 79 79 14
Width: 864
Flags: HW
LayerCount: 2
Fore
SplineSet
142.571289062 657.142578125 m 1
 142.571289062 800 l 1
 571.142578125 800 l 1
 571.142578125 657.142578125 l 1
 142.571289062 657.142578125 l 1
-0.2861328125 -57.142578125 m 1
 -0.2861328125 654.286132812 l 1
 142.571289062 654.286132812 l 1
 142.571289062 -57.142578125 l 1
 -0.2861328125 -57.142578125 l 1
142.571289062 -200 m 1
 142.571289062 -57.142578125 l 1
 571.142578125 -57.142578125 l 1
 571.142578125 -200 l 1
 142.571289062 -200 l 1
571.142578125 -57.142578125 m 1
 571.142578125 657.142578125 l 1
 714 657.142578125 l 1
 714 -57.142578125 l 1
 571.142578125 -57.142578125 l 1
EndSplineSet
Validated: 5
EndChar

StartChar: P
Encoding: 80 80 15
Width: 864
Flags: HW
LayerCount: 2
Fore
SplineSet
142.571289062 657.142578125 m 1
 142.571289062 514.286132812 l 1
 571.142578125 514.286132812 l 1
 571.142578125 371.428710938 l 1
 142.571289062 371.428710938 l 1
 142.571289062 -200 l 1
 -0.2861328125 -200 l 1
 -0.2861328125 800 l 1
 142.571289062 800 l 1
 571.142578125 800 l 1
 571.142578125 657.142578125 l 1
 142.571289062 657.142578125 l 1
571.142578125 514.286132812 m 1
 571.142578125 657.142578125 l 1
 714 657.142578125 l 1
 714 514.286132812 l 1
 571.142578125 514.286132812 l 1
EndSplineSet
Validated: 5
EndChar

StartChar: Q
Encoding: 81 81 16
Width: 865
Flags: HW
LayerCount: 2
Fore
SplineSet
0.75 -57.150390625 m 1
 0.75 657.099609375 l 1
 143.599609375 657.099609375 l 1
 143.599609375 -57.150390625 l 1
 0.75 -57.150390625 l 1
143.599609375 -200 m 1
 143.599609375 -57.150390625 l 1
 572.150390625 -57.150390625 l 1
 572.150390625 -200 l 1
 143.599609375 -200 l 1
572.150390625 -57.150390625 m 1
 572.150390625 657.099609375 l 1
 715 657.099609375 l 1
 715 -57.150390625 l 1
 572.150390625 -57.150390625 l 1
143.599609375 657.099609375 m 1
 143.599609375 799.950195312 l 1
 572.150390625 799.950195312 l 1
 572.150390625 657.099609375 l 1
 143.599609375 657.099609375 l 1
572.150390625 -342.850585938 m 1
 572.150390625 -200 l 1
 715 -200 l 1
 715 -342.850585938 l 1
 572.150390625 -342.850585938 l 1
EndSplineSet
Validated: 5
EndChar

StartChar: R
Encoding: 82 82 17
Width: 864
Flags: HW
LayerCount: 2
Fore
SplineSet
571.142578125 514.286132812 m 1
 571.142578125 657.142578125 l 1
 714 657.142578125 l 1
 714 514.286132812 l 1
 571.142578125 514.286132812 l 1
142.571289062 514.286132812 m 1
 571.142578125 514.286132812 l 1
 571.142578125 371.428710938 l 1
 142.571289062 371.428710938 l 1
 142.571289062 -200 l 1
 -0.2861328125 -200 l 1
 -0.2861328125 800 l 1
 142.571289062 800 l 1
 142.571289062 800 l 1
 571.142578125 800 l 1
 571.142578125 657.142578125 l 1
 142.571289062 657.142578125 l 1
 142.571289062 514.286132812 l 1
571.142578125 -200 m 1
 571.142578125 371.428710938 l 1
 714 371.428710938 l 1
 714 -200 l 1
 571.142578125 -200 l 1
EndSplineSet
Validated: 5
EndChar

StartChar: S
Encoding: 83 83 18
Width: 864
Flags: HW
LayerCount: 2
Fore
SplineSet
142.571289062 657.142578125 m 1
 142.571289062 800 l 1
 571.142578125 800 l 1
 571.142578125 657.142578125 l 1
 142.571289062 657.142578125 l 1
-0.2861328125 514.286132812 m 1
 -0.2861328125 650 l 1
 142.571289062 650 l 1
 142.571289062 514.286132812 l 1
 -0.2861328125 514.286132812 l 1
142.571289062 371.428710938 m 1
 142.571289062 514.286132812 l 1
 571.142578125 514.286132812 l 1
 571.142578125 371.428710938 l 1
 142.571289062 371.428710938 l 1
571.142578125 -57.142578125 m 1
 571.142578125 371.428710938 l 1
 714 371.428710938 l 1
 714 -57.142578125 l 1
 571.142578125 -57.142578125 l 1
142.571289062 -200 m 1
 142.571289062 -57.142578125 l 1
 571.142578125 -57.142578125 l 1
 571.142578125 -200 l 1
 142.571289062 -200 l 1
EndSplineSet
Validated: 5
EndChar

StartChar: T
Encoding: 84 84 19
Width: 863
Flags: HW
LayerCount: 2
Fore
SplineSet
-0.2666015625 800 m 1
 713 800 l 1
 713 655.919921875 l 1
 427.693359375 655.919921875 l 1
 427.693359375 -200 l 1
 285.040039062 -200 l 1
 285.040039062 655.919921875 l 1
 -0.2666015625 655.919921875 l 1
 -0.2666015625 800 l 1
EndSplineSet
Validated: 1
EndChar

StartChar: U
Encoding: 85 85 20
Width: 864
Flags: HW
LayerCount: 2
Fore
SplineSet
-0.2861328125 -57.142578125 m 1
 -0.2861328125 800 l 1
 142.571289062 800 l 1
 142.571289062 -57.142578125 l 1
 -0.2861328125 -57.142578125 l 1
142.571289062 -200 m 1
 142.571289062 -57.142578125 l 1
 571.142578125 -57.142578125 l 1
 571.142578125 -200 l 1
 142.571289062 -200 l 1
571.142578125 -57.142578125 m 1
 571.142578125 800 l 1
 714 800 l 1
 714 -57.142578125 l 1
 571.142578125 -57.142578125 l 1
EndSplineSet
Validated: 5
EndChar

StartChar: V
Encoding: 86 86 21
Width: 864
Flags: HW
LayerCount: 2
Fore
SplineSet
-0.2861328125 514.286132812 m 1
 -0.2861328125 798.571289062 l 1
 142.571289062 798.571289062 l 1
 142.571289062 514.286132812 l 1
 -0.2861328125 514.286132812 l 1
571.142578125 514.286132812 m 1
 571.142578125 800 l 1
 714 800 l 1
 714 514.286132812 l 1
 571.142578125 514.286132812 l 1
142.571289062 228.571289062 m 1
 142.571289062 514.286132812 l 1
 285.427734375 514.286132812 l 1
 285.427734375 228.571289062 l 1
 142.571289062 228.571289062 l 1
428.28515625 228.571289062 m 1
 428.28515625 514.286132812 l 1
 571.142578125 514.286132812 l 1
 571.142578125 228.571289062 l 1
 428.28515625 228.571289062 l 1
285.427734375 85.7138671875 m 1
 285.427734375 228.571289062 l 1
 428.28515625 228.571289062 l 1
 428.28515625 85.7138671875 l 1
 428.28515625 -200 l 1
 285.427734375 -200 l 1
 285.427734375 85.7138671875 l 1
EndSplineSet
Validated: 5
EndChar

StartChar: W
Encoding: 87 87 22
Width: 857
Flags: HW
LayerCount: 2
Fore
SplineSet
141.228515625 800 m 1
 141.228515625 82.8857421875 l 1
 282.671875 82.8857421875 l 1
 282.671875 -58.5576171875 l 1
 141.228515625 -58.5576171875 l 1
 141.228515625 -200 l 1
 -0.2138671875 -200 l 1
 -0.2138671875 800 l 1
 141.228515625 800 l 1
282.671875 82.8857421875 m 1
 282.671875 224.328125 l 1
 424.114257812 224.328125 l 1
 424.114257812 82.8857421875 l 1
 282.671875 82.8857421875 l 1
565.556640625 790.098632812 m 1
 707 790.098632812 l 1
 707 -200 l 1
 565.556640625 -200 l 1
 565.556640625 -58.5576171875 l 1
 424.114257812 -58.5576171875 l 1
 424.114257812 82.8857421875 l 1
 565.556640625 82.8857421875 l 1
 565.556640625 790.098632812 l 1
EndSplineSet
Validated: 5
EndChar

StartChar: X
Encoding: 88 88 23
Width: 864
Flags: HW
LayerCount: 2
Fore
SplineSet
-0.2861328125 657.142578125 m 1
 -0.2861328125 800 l 1
 142.571289062 800 l 1
 142.571289062 657.142578125 l 1
 -0.2861328125 657.142578125 l 1
571.142578125 657.142578125 m 1
 571.142578125 800 l 1
 714 800 l 1
 714 657.142578125 l 1
 571.142578125 657.142578125 l 1
142.571289062 371.428710938 m 1
 142.571289062 657.142578125 l 1
 285.427734375 657.142578125 l 1
 285.427734375 371.428710938 l 1
 142.571289062 371.428710938 l 1
428.28515625 371.428710938 m 1
 428.28515625 657.142578125 l 1
 571.142578125 657.142578125 l 1
 571.142578125 371.428710938 l 1
 428.28515625 371.428710938 l 1
142.571289062 -57.142578125 m 1
 142.571289062 228.571289062 l 1
 285.427734375 228.571289062 l 1
 285.427734375 -57.142578125 l 1
 142.571289062 -57.142578125 l 1
428.28515625 -57.142578125 m 1
 428.28515625 228.571289062 l 1
 571.142578125 228.571289062 l 1
 571.142578125 -57.142578125 l 1
 428.28515625 -57.142578125 l 1
-0.2861328125 -200 m 1
 -0.2861328125 -61.4287109375 l 1
 142.571289062 -61.4287109375 l 1
 142.571289062 -200 l 1
 -0.2861328125 -200 l 1
571.142578125 -200 m 1
 571.142578125 -57.142578125 l 1
 714 -57.142578125 l 1
 714 -200 l 1
 571.142578125 -200 l 1
285.427734375 228.571289062 m 1
 285.427734375 371.428710938 l 1
 428.28515625 371.428710938 l 1
 428.28515625 228.571289062 l 1
 285.427734375 228.571289062 l 1
EndSplineSet
Validated: 5
EndChar

StartChar: Y
Encoding: 89 89 24
Width: 864
Flags: HW
LayerCount: 2
Fore
SplineSet
-0.2861328125 657.142578125 m 1
 -0.2861328125 795.713867188 l 1
 142.571289062 795.713867188 l 1
 142.571289062 657.142578125 l 1
 -0.2861328125 657.142578125 l 1
142.571289062 514.286132812 m 1
 142.571289062 657.142578125 l 1
 285.427734375 657.142578125 l 1
 285.427734375 514.286132812 l 1
 142.571289062 514.286132812 l 1
285.427734375 371.428710938 m 1
 285.427734375 514.286132812 l 1
 428.28515625 514.286132812 l 1
 428.28515625 371.428710938 l 1
 428.28515625 -200 l 1
 285.427734375 -200 l 1
 285.427734375 371.428710938 l 1
428.28515625 514.286132812 m 1
 428.28515625 657.142578125 l 1
 571.142578125 657.142578125 l 1
 571.142578125 514.286132812 l 1
 428.28515625 514.286132812 l 1
571.142578125 657.142578125 m 1
 571.142578125 800 l 1
 714 800 l 1
 714 657.142578125 l 1
 571.142578125 657.142578125 l 1
EndSplineSet
Validated: 5
EndChar

StartChar: Z
Encoding: 90 90 25
Width: 864
Flags: HW
LayerCount: 2
Fore
SplineSet
-0.2861328125 800 m 1
 714 800 l 1
 714 657.142578125 l 1
 714 514.286132812 l 1
 571.142578125 514.286132812 l 1
 571.142578125 657.142578125 l 1
 -0.2861328125 657.142578125 l 1
 -0.2861328125 800 l 1
428.28515625 371.428710938 m 1
 428.28515625 514.286132812 l 1
 571.142578125 514.286132812 l 1
 571.142578125 371.428710938 l 1
 428.28515625 371.428710938 l 1
285.427734375 228.571289062 m 1
 285.427734375 371.428710938 l 1
 428.28515625 371.428710938 l 1
 428.28515625 228.571289062 l 1
 285.427734375 228.571289062 l 1
142.571289062 85.7138671875 m 1
 142.571289062 228.571289062 l 1
 285.427734375 228.571289062 l 1
 285.427734375 85.7138671875 l 1
 142.571289062 85.7138671875 l 1
-0.2861328125 -57.142578125 m 1
 -0.2861328125 85.7138671875 l 1
 142.571289062 85.7138671875 l 1
 142.571289062 -57.142578125 l 1
 714 -57.142578125 l 1
 714 -200 l 1
 -0.2861328125 -200 l 1
 -0.2861328125 -57.142578125 l 1
EndSplineSet
Validated: 5
EndChar

StartChar: a
Encoding: 97 97 26
Width: 721
VWidth: 699
Flags: HW
LayerCount: 2
Fore
SplineSet
428.149414062 372 m 1
 571 372 l 1
 571 -56.5498046875 l 1
 570.599609375 -200 l 1
 142.049804688 -199.549804688 l 1
 142.450195312 -56.5498046875 l 1
 428.149414062 -56.5498046875 l 1
 428.149414062 229.149414062 l 1
 142.450195312 229.149414062 l 1
 142.450195312 372 l 1
 428.149414062 372 l 1
-0.400390625 -56.5498046875 m 1
 -0.400390625 229.149414062 l 1
 142.450195312 229.149414062 l 1
 142.450195312 -56.5498046875 l 1
 -0.400390625 -56.5498046875 l 1
EndSplineSet
Validated: 5
EndChar

StartChar: b
Encoding: 98 98 27
Width: 725
Flags: HW
LayerCount: 2
Fore
SplineSet
143.96484375 231.034179688 m 1
 143.96484375 -56.322265625 l 1
 431.321289062 -56.322265625 l 1
 431.321289062 -200 l 1
 143.96484375 -200 l 1
 0.287109375 -200 l 1
 0.287109375 800 l 1
 143.96484375 800 l 1
 143.96484375 374.712890625 l 1
 431.321289062 374.712890625 l 1
 431.321289062 231.034179688 l 1
 143.96484375 231.034179688 l 1
431.321289062 -56.322265625 m 1
 431.321289062 231.034179688 l 1
 575 231.034179688 l 1
 575 -56.322265625 l 1
 431.321289062 -56.322265625 l 1
EndSplineSet
Validated: 5
EndChar

StartChar: c
Encoding: 99 99 28
Width: 579
VWidth: 699
Flags: HW
LayerCount: 2
Fore
SplineSet
143.299804688 -200 m 1
 143.299804688 -57.1494140625 l 1
 429 -57.1494140625 l 1
 429 -200 l 1
 143.299804688 -200 l 1
429 228.549804688 m 1
 143.299804688 228.549804688 l 1
 143.299804688 -57.1494140625 l 1
 0.2998046875 -57.1494140625 l 5
 0.44921875 232.8359375 l 1
 143.299804688 232.8359375 l 1
 143.299804688 371.400390625 l 1
 429 371.400390625 l 1
 429 228.549804688 l 1
EndSplineSet
Validated: 5
EndChar

StartChar: d
Encoding: 100 100 29
Width: 721
Flags: HW
LayerCount: 2
Fore
SplineSet
428.142578125 800 m 1
 571 800 l 1
 571 -200 l 1
 428.142578125 -200 l 1
 142.428710938 -200 l 1
 142.428710938 -57.142578125 l 1
 428.142578125 -57.142578125 l 1
 428.142578125 228.571289062 l 1
 142.428710938 228.571289062 l 1
 142.428710938 371.428710938 l 1
 428.142578125 371.428710938 l 1
 428.142578125 800 l 1
-0.4287109375 -57.142578125 m 1
 -0.4287109375 225.713867188 l 1
 142.428710938 225.713867188 l 1
 142.428710938 -57.142578125 l 1
 -0.4287109375 -57.142578125 l 1
EndSplineSet
Validated: 5
EndChar

StartChar: e
Encoding: 101 101 30
Width: 721
VWidth: 699
Flags: HW
LayerCount: 2
Fore
SplineSet
142.450195312 85.7001953125 m 5
 285.299804688 85.7001953125 l 5
 285.299804688 -57.1494140625 l 5
 428.149414062 -57.1494140625 l 5
 428.149414062 -200 l 5
 142.450195312 -200 l 5
 142.450195312 -57.1494140625 l 5
 -0.400390625 -57.1494140625 l 5
 -0.400390625 85.7001953125 l 5
 -0.400390625 228.549804688 l 5
 142.450195312 228.549804688 l 5
 142.450195312 85.7001953125 l 5
285.299804688 85.7001953125 m 5
 285.299804688 228.549804688 l 5
 142.450195312 228.549804688 l 5
 142.450195312 371.400390625 l 5
 428.149414062 371.400390625 l 5
 428.149414062 228.549804688 l 5
 571 228.549804688 l 5
 571 85.7001953125 l 5
 285.299804688 85.7001953125 l 5
EndSplineSet
Validated: 5
EndChar

StartChar: f
Encoding: 102 102 31
Width: 579
Flags: HW
LayerCount: 2
Fore
SplineSet
143.286132812 657.142578125 m 1
 286.142578125 657.142578125 l 1
 286.142578125 371.428710938 l 1
 429 371.428710938 l 1
 429 228.571289062 l 1
 286.142578125 228.571289062 l 1
 286.142578125 -200 l 1
 143.286132812 -200 l 1
 143.286132812 228.571289062 l 1
 0.4287109375 228.571289062 l 1
 0.4287109375 375.713867188 l 1
 143.286132812 375.713867188 l 1
 143.286132812 657.142578125 l 1
286.142578125 657.142578125 m 1
 286.142578125 800 l 1
 429 800 l 1
 429 657.142578125 l 1
 286.142578125 657.142578125 l 1
EndSplineSet
Validated: 5
EndChar

StartChar: g
Encoding: 103 103 32
Width: 683
VWidth: 860
Flags: HW
LayerCount: 2
Fore
SplineSet
399.666992188 200 m 5
 533 200 l 5
 533 -333.33203125 l 5
 399.666992188 -333.33203125 l 5
 399.666992188 -200 l 5
 133 -200 l 5
 133 -66.666015625 l 5
 399.666992188 -66.666015625 l 5
 399.666992188 200 l 5
133 -466.666015625 m 5
 133 -333.33203125 l 5
 399.666992188 -333.33203125 l 5
 399.666992188 -466.666015625 l 5
 133 -466.666015625 l 5
-0.3330078125 -66.666015625 m 5
 -0.3330078125 200 l 5
 133 200 l 5
 133 -66.666015625 l 5
 -0.3330078125 -66.666015625 l 5
133 200 m 5
 133 333.333984375 l 5
 399.666992188 333.333984375 l 5
 399.666992188 200 l 5
 133 200 l 5
EndSplineSet
Validated: 5
EndChar

StartChar: h
Encoding: 104 104 33
Width: 729
Flags: HW
LayerCount: 2
Fore
SplineSet
144.846679688 378.87109375 m 1
 434.282226562 378.87109375 l 1
 434.282226562 234.153320312 l 1
 144.846679688 234.153320312 l 1
 144.846679688 -200 l 1
 0.12890625 -200 l 1
 0.12890625 800 l 1
 144.846679688 800 l 1
 144.846679688 378.87109375 l 1
434.282226562 -200 m 1
 434.282226562 234.153320312 l 1
 579 234.153320312 l 1
 579 -200 l 1
 434.282226562 -200 l 1
EndSplineSet
Validated: 5
EndChar

StartChar: i
Encoding: 105 105 34
Width: 293
Flags: HW
LayerCount: 2
Fore
SplineSet
-0.0615234375 658.369140625 m 1
 -0.0615234375 800 l 1
 143 800 l 1
 143 658.369140625 l 1
 -0.0615234375 658.369140625 l 1
-0.0615234375 236.337890625 m 1
 -0.0615234375 372.24609375 l 1
 143 372.24609375 l 1
 143 236.337890625 l 1
 143 229.184570312 l 1
 143 -200 l 1
 -0.0615234375 -200 l 1
 -0.0615234375 229.184570312 l 1
 -0.0615234375 236.337890625 l 1
EndSplineSet
Validated: 1
EndChar

StartChar: j
Encoding: 106 106 35
Width: 400
Flags: HW
LayerCount: 2
Fore
SplineSet
0 -200 m 1
 0 -78.75 l 1
 125 -78.75 l 1
 125 -200 l 1
 0 -200 l 1
0 300 m 1
 0 421.25 l 1
 250 421.25 l 1
 250 300 l 1
 250 -75 l 1
 125 -75 l 1
 125 300 l 1
 0 300 l 1
125 675 m 1
 125 800 l 1
 250 800 l 1
 250 675 l 1
 125 675 l 1
EndSplineSet
Validated: 1
EndChar

StartChar: k
Encoding: 107 107 36
Width: 728
Flags: HW
LayerCount: 2
Fore
SplineSet
144.473632812 233.526367188 m 1
 288.982421875 233.526367188 l 1
 288.982421875 89.017578125 l 1
 144.473632812 89.017578125 l 1
 144.473632812 -200 l 1
 -0.03515625 -200 l 1
 -0.03515625 800 l 1
 144.473632812 800 l 1
 144.473632812 233.526367188 l 1
288.982421875 -55.4912109375 m 1
 288.982421875 89.017578125 l 1
 433.491210938 89.017578125 l 1
 433.491210938 -55.4912109375 l 1
 288.982421875 -55.4912109375 l 1
433.491210938 -200 m 1
 433.491210938 -55.4912109375 l 1
 578 -55.4912109375 l 1
 578 -200 l 1
 433.491210938 -200 l 1
288.982421875 233.526367188 m 1
 288.982421875 378.03515625 l 1
 433.491210938 378.03515625 l 1
 433.491210938 233.526367188 l 1
 288.982421875 233.526367188 l 1
433.491210938 378.03515625 m 1
 433.491210938 522.54296875 l 1
 578 522.54296875 l 1
 578 378.03515625 l 1
 433.491210938 378.03515625 l 1
EndSplineSet
Validated: 5
EndChar

StartChar: l
Encoding: 108 108 37
Width: 439
Flags: HW
LayerCount: 2
Fore
SplineSet
-0.435546875 -55.2822265625 m 1
 -0.435546875 800 l 1
 144.282226562 800 l 1
 144.282226562 -55.2822265625 l 1
 -0.435546875 -55.2822265625 l 1
144.282226562 -200 m 1
 144.282226562 -55.2822265625 l 1
 289 -55.2822265625 l 1
 289 -200 l 1
 144.282226562 -200 l 1
EndSplineSet
Validated: 5
EndChar

StartChar: m
Encoding: 109 109 38
Width: 864
VWidth: 699
Flags: HW
LayerCount: 2
Fore
SplineSet
142.599609375 371.400390625 m 1
 571.150390625 371.400390625 l 1
 571.150390625 228.549804688 l 1
 428.299804688 228.549804688 l 1
 428.299804688 -200 l 1
 285.450195312 -200 l 1
 285.450195312 228.549804688 l 1
 142.599609375 228.549804688 l 1
 142.599609375 -200 l 1
 -0.25 -200 l 1
 -0.25 371.400390625 l 1
 142.599609375 371.400390625 l 1
571.150390625 -200 m 1
 571.150390625 228.549804688 l 1
 714 228.549804688 l 1
 714 -200 l 1
 571.150390625 -200 l 1
EndSplineSet
Validated: 5
EndChar

StartChar: n
Encoding: 110 110 39
Width: 721
VWidth: 699
Flags: HW
LayerCount: 2
Fore
SplineSet
142.450195312 371.400390625 m 5
 428.149414062 371.400390625 l 5
 428.149414062 228.549804688 l 5
 142.450195312 228.549804688 l 5
 142.450195312 -200 l 5
 -0.400390625 -200 l 5
 -0.400390625 371.400390625 l 5
 142.450195312 371.400390625 l 5
428.149414062 -200 m 5
 428.149414062 228.549804688 l 5
 571 228.549804688 l 5
 571 -200 l 5
 428.149414062 -200 l 5
EndSplineSet
Validated: 5
EndChar

StartChar: o
Encoding: 111 111 40
Width: 721
VWidth: 699
Flags: HW
LayerCount: 2
Fore
SplineSet
142.450195312 -200 m 5
 142.450195312 -57.1494140625 l 5
 428.149414062 -57.1494140625 l 5
 428.149414062 -200 l 5
 142.450195312 -200 l 5
428.149414062 -57.1494140625 m 5
 428.149414062 228.549804688 l 5
 571 228.549804688 l 5
 571 -57.1494140625 l 5
 428.149414062 -57.1494140625 l 5
-0.400390625 -57.1494140625 m 5
 -0.400390625 225.693359375 l 5
 142.450195312 225.693359375 l 5
 142.450195312 -57.1494140625 l 5
 -0.400390625 -57.1494140625 l 5
142.450195312 228.549804688 m 5
 142.450195312 371.400390625 l 5
 428.149414062 371.400390625 l 5
 428.149414062 228.549804688 l 5
 142.450195312 228.549804688 l 5
EndSplineSet
Validated: 5
EndChar

StartChar: p
Encoding: 112 112 41
Width: 683
VWidth: 860
Flags: HW
LayerCount: 2
Fore
SplineSet
137 200 m 5
 137 -66.666015625 l 5
 399.666992188 -66.666015625 l 5
 399.666992188 -200 l 5
 137 -200 l 5
 137 -466.666015625 l 5
 -0.3330078125 -466.666015625 l 5
 -0.3330078125 333.333984375 l 5
 133 333.333984375 l 5
 137 333.333984375 l 5
 399.666992188 333.333984375 l 5
 399.666992188 200 l 5
 137 200 l 5
399.666992188 -66.666015625 m 5
 399.666992188 200 l 5
 533 200 l 5
 533 -66.666015625 l 5
 399.666992188 -66.666015625 l 5
EndSplineSet
Validated: 5
EndChar

StartChar: q
Encoding: 113 113 42
Width: 683
VWidth: 860
Flags: HW
LayerCount: 2
Fore
SplineSet
399.666992188 333.333984375 m 5
 533 333.333984375 l 5
 533 -466.666015625 l 5
 399.666992188 -466.666015625 l 5
 399.666992188 -200 l 5
 133 -200 l 5
 133 -66.666015625 l 5
 399.666992188 -66.666015625 l 5
 399.666992188 200 l 5
 133 200 l 5
 133 333.333984375 l 5
 399.666992188 333.333984375 l 5
-0.3330078125 -66.666015625 m 5
 -0.3330078125 200 l 5
 133 200 l 5
 133 -66.666015625 l 5
 -0.3330078125 -66.666015625 l 5
EndSplineSet
Validated: 5
EndChar

StartChar: r
Encoding: 114 114 43
Width: 579
VWidth: 699
Flags: HW
LayerCount: 2
Fore
SplineSet
0.44921875 -200 m 5
 0.44921875 228.549804688 l 5
 143.299804688 228.549804688 l 5
 143.299804688 -200 l 5
 0.44921875 -200 l 5
143.299804688 228.549804688 m 5
 143.299804688 371.400390625 l 5
 429 371.400390625 l 5
 429 228.549804688 l 5
 143.299804688 228.549804688 l 5
EndSplineSet
Validated: 5
EndChar

StartChar: s
Encoding: 115 115 44
Width: 721
VWidth: 699
Flags: HW
LayerCount: 2
Fore
SplineSet
571 228.549804688 m 5
 428.149414062 228.549804688 l 5
 428.149414062 85.7001953125 l 5
 571 85.7001953125 l 5
 571 -57.1494140625 l 5
 428.149414062 -57.1494140625 l 5
 428.149414062 -200 l 5
 -0.400390625 -200 l 5
 -0.400390625 -57.1494140625 l 5
 285.299804688 -57.1494140625 l 5
 285.299804688 85.7001953125 l 5
 -0.400390625 85.7001953125 l 5
 -0.400390625 228.549804688 l 5
 142.450195312 228.549804688 l 5
 142.450195312 371.400390625 l 5
 571 371.400390625 l 5
 571 228.549804688 l 5
EndSplineSet
Validated: 1
EndChar

StartChar: t
Encoding: 116 116 45
Width: 437
Flags: HW
LayerCount: 2
Fore
SplineSet
143.733398438 -200 m 1
 143.733398438 -56.7333984375 l 1
 287 -56.7333984375 l 1
 287 -200 l 1
 143.733398438 -200 l 1
287 373.065429688 m 1
 143.733398438 373.065429688 l 1
 143.733398438 -56.7333984375 l 1
 0.466796875 -56.7333984375 l 1
 0.466796875 373.065429688 l 1
 0.466796875 514.899414062 l 1
 0.466796875 800 l 1
 143.733398438 800 l 1
 143.733398438 516.33203125 l 1
 287 516.33203125 l 1
 287 373.065429688 l 1
EndSplineSet
Validated: 5
EndChar

StartChar: u
Encoding: 117 117 46
Width: 721
VWidth: 699
Flags: HW
LayerCount: 2
Fore
SplineSet
-0.400390625 -57.1494140625 m 5
 -0.400390625 371.400390625 l 5
 142.450195312 371.400390625 l 5
 142.450195312 -57.1494140625 l 5
 -0.400390625 -57.1494140625 l 5
142.450195312 -200 m 5
 142.450195312 -57.1494140625 l 5
 428.149414062 -57.1494140625 l 5
 428.149414062 -200 l 5
 142.450195312 -200 l 5
428.149414062 -57.1494140625 m 5
 428.149414062 371.400390625 l 5
 571 371.400390625 l 5
 571 -57.1494140625 l 5
 428.149414062 -57.1494140625 l 5
EndSplineSet
Validated: 5
EndChar

StartChar: v
Encoding: 118 118 47
Width: 721
VWidth: 699
Flags: HW
LayerCount: 2
Fore
SplineSet
-0.400390625 -57.1494140625 m 5
 -0.400390625 371.400390625 l 5
 142.450195312 371.400390625 l 5
 142.450195312 -57.1494140625 l 5
 -0.400390625 -57.1494140625 l 5
142.450195312 -200 m 5
 142.450195312 -57.1494140625 l 5
 285.299804688 -57.1494140625 l 5
 285.299804688 -200 l 5
 142.450195312 -200 l 5
428.149414062 85.7001953125 m 5
 428.149414062 371.400390625 l 5
 571 371.400390625 l 5
 571 85.7001953125 l 5
 428.149414062 85.7001953125 l 5
285.299804688 -57.1494140625 m 5
 285.299804688 85.7001953125 l 5
 428.149414062 85.7001953125 l 5
 428.149414062 -57.1494140625 l 5
 285.299804688 -57.1494140625 l 5
EndSplineSet
Validated: 5
EndChar

StartChar: w
Encoding: 119 119 48
Width: 864
VWidth: 699
Flags: HW
LayerCount: 2
Fore
SplineSet
-0.25 -57.1494140625 m 5
 -0.25 369.971679688 l 5
 142.599609375 369.971679688 l 5
 142.599609375 -57.1494140625 l 5
 -0.25 -57.1494140625 l 5
142.599609375 -200 m 5
 142.599609375 -57.1494140625 l 5
 285.450195312 -57.1494140625 l 5
 285.450195312 -200 l 5
 142.599609375 -200 l 5
285.450195312 -57.1494140625 m 5
 285.450195312 371.400390625 l 5
 428.299804688 371.400390625 l 5
 428.299804688 -57.1494140625 l 5
 285.450195312 -57.1494140625 l 5
428.299804688 -200 m 5
 428.299804688 -57.1494140625 l 5
 571.150390625 -57.1494140625 l 5
 571.150390625 -200 l 5
 428.299804688 -200 l 5
571.150390625 -57.1494140625 m 5
 571.150390625 371.400390625 l 5
 714 371.400390625 l 5
 714 -57.1494140625 l 5
 571.150390625 -57.1494140625 l 5
EndSplineSet
Validated: 5
EndChar

StartChar: x
Encoding: 120 120 49
Width: 579
VWidth: 699
Flags: HW
LayerCount: 2
Fore
SplineSet
0.44921875 -200 m 5
 0.44921875 -57.1494140625 l 5
 143.299804688 -57.1494140625 l 5
 143.299804688 -200 l 5
 0.44921875 -200 l 5
286.149414062 -200 m 5
 286.149414062 -57.1494140625 l 5
 429 -57.1494140625 l 5
 429 -200 l 5
 286.149414062 -200 l 5
143.299804688 -57.1494140625 m 5
 143.299804688 228.549804688 l 5
 286.149414062 228.549804688 l 5
 286.149414062 -57.1494140625 l 5
 143.299804688 -57.1494140625 l 5
286.149414062 228.549804688 m 5
 286.149414062 371.400390625 l 5
 429 371.400390625 l 5
 429 228.549804688 l 5
 286.149414062 228.549804688 l 5
0.44921875 228.549804688 m 5
 0.44921875 369.971679688 l 5
 143.299804688 369.971679688 l 5
 143.299804688 228.549804688 l 5
 0.44921875 228.549804688 l 5
EndSplineSet
Validated: 5
EndChar

StartChar: y
Encoding: 121 121 50
Width: 683
VWidth: 860
Flags: HW
LayerCount: 2
Fore
SplineSet
-0.3330078125 -66.666015625 m 5
 -0.3330078125 330.66796875 l 5
 133 330.66796875 l 5
 133 -66.666015625 l 5
 -0.3330078125 -66.666015625 l 5
399.666992188 333.333984375 m 5
 533 333.333984375 l 5
 533 -333.33203125 l 5
 399.666992188 -333.33203125 l 5
 399.666992188 -200 l 5
 133 -200 l 5
 133 -66.666015625 l 5
 399.666992188 -66.666015625 l 5
 399.666992188 333.333984375 l 5
133 -466.666015625 m 5
 133 -333.33203125 l 5
 399.666992188 -333.33203125 l 5
 399.666992188 -466.666015625 l 5
 133 -466.666015625 l 5
EndSplineSet
Validated: 5
EndChar

StartChar: z
Encoding: 122 122 51
Width: 721
VWidth: 699
Flags: HW
LayerCount: 2
Fore
SplineSet
428.149414062 228.549804688 m 1
 428.149414062 85.7001953125 l 1
 285.299804688 85.7001953125 l 1
 285.299804688 228.549804688 l 1
 -0.400390625 228.549804688 l 1
 -0.400390625 371.400390625 l 1
 571 371.400390625 l 1
 571 228.549804688 l 1
 428.149414062 228.549804688 l 1
142.450195312 85.7001953125 m 1
 285.299804688 85.7001953125 l 1
 285.299804688 -57.1494140625 l 1
 571 -57.1494140625 l 1
 571 -200 l 1
 -0.400390625 -200 l 1
 -0.400390625 -57.1494140625 l 1
 142.450195312 -57.1494140625 l 1
 142.450195312 85.7001953125 l 1
EndSplineSet
Validated: 5
EndChar

StartChar: zero
Encoding: 48 48 52
Width: 721
Flags: HW
LayerCount: 2
Fore
SplineSet
142.428710938 657.142578125 m 1
 142.428710938 800 l 1
 428.142578125 800 l 1
 428.142578125 657.142578125 l 1
 142.428710938 657.142578125 l 1
-0.4287109375 -57.142578125 m 1
 -0.4287109375 657.142578125 l 1
 142.428710938 657.142578125 l 1
 142.428710938 -57.142578125 l 1
 -0.4287109375 -57.142578125 l 1
428.142578125 -57.142578125 m 1
 428.142578125 657.142578125 l 1
 571 657.142578125 l 1
 571 -57.142578125 l 1
 428.142578125 -57.142578125 l 1
142.428710938 -200 m 1
 142.428710938 -57.142578125 l 1
 428.142578125 -57.142578125 l 1
 428.142578125 -200 l 1
 142.428710938 -200 l 1
EndSplineSet
Validated: 5
EndChar

StartChar: one
Encoding: 49 49 53
Width: 579
Flags: HW
LayerCount: 2
Fore
SplineSet
0.4287109375 371.428710938 m 1
 0.4287109375 514.286132812 l 1
 143.286132812 514.286132812 l 1
 143.286132812 371.428710938 l 1
 0.4287109375 371.428710938 l 1
286.142578125 800 m 1
 429 800 l 1
 429 -200 l 1
 286.142578125 -200 l 1
 286.142578125 514.286132812 l 1
 143.286132812 514.286132812 l 1
 143.286132812 657.142578125 l 1
 286.142578125 657.142578125 l 1
 286.142578125 800 l 1
EndSplineSet
Validated: 5
EndChar

StartChar: two
Encoding: 50 50 54
Width: 721
Flags: HW
LayerCount: 2
Fore
SplineSet
-0.4287109375 371.428710938 m 1
 -0.4287109375 657.142578125 l 1
 142.428710938 657.142578125 l 1
 142.428710938 371.428710938 l 1
 -0.4287109375 371.428710938 l 1
142.428710938 657.142578125 m 1
 142.428710938 800 l 1
 428.142578125 800 l 1
 428.142578125 657.142578125 l 1
 142.428710938 657.142578125 l 1
428.142578125 371.428710938 m 1
 428.142578125 657.142578125 l 1
 571 657.142578125 l 1
 571 371.428710938 l 1
 428.142578125 371.428710938 l 1
285.28515625 228.571289062 m 1
 285.28515625 371.428710938 l 1
 428.142578125 371.428710938 l 1
 428.142578125 228.571289062 l 1
 285.28515625 228.571289062 l 1
142.428710938 85.7138671875 m 1
 142.428710938 228.571289062 l 1
 285.28515625 228.571289062 l 1
 285.28515625 85.7138671875 l 1
 142.428710938 85.7138671875 l 1
-0.4287109375 85.7138671875 m 1
 142.428710938 85.7138671875 l 1
 142.428710938 -57.142578125 l 1
 571 -57.142578125 l 1
 571 -200 l 1
 142.428710938 -200 l 1
 -0.4287109375 -200 l 1
 -0.4287109375 85.7138671875 l 1
EndSplineSet
Validated: 5
EndChar

StartChar: three
Encoding: 51 51 55
Width: 721
Flags: HW
LayerCount: 2
Fore
SplineSet
-0.4287109375 657.142578125 m 1
 -0.4287109375 800 l 1
 428.142578125 800 l 1
 428.142578125 657.142578125 l 1
 -0.4287109375 657.142578125 l 1
428.142578125 371.428710938 m 1
 428.142578125 657.142578125 l 1
 571 657.142578125 l 1
 571 371.428710938 l 1
 428.142578125 371.428710938 l 1
-0.4287109375 228.571289062 m 1
 -0.4287109375 371.428710938 l 1
 428.142578125 371.428710938 l 1
 428.142578125 228.571289062 l 1
 -0.4287109375 228.571289062 l 1
428.142578125 -57.142578125 m 1
 428.142578125 228.571289062 l 1
 571 228.571289062 l 1
 571 -57.142578125 l 1
 428.142578125 -57.142578125 l 1
-0.4287109375 -200 m 1
 -0.4287109375 -57.142578125 l 1
 428.142578125 -57.142578125 l 1
 428.142578125 -200 l 1
 -0.4287109375 -200 l 1
EndSplineSet
Validated: 5
EndChar

StartChar: four
Encoding: 52 52 56
Width: 721
Flags: HW
LayerCount: 2
Fore
SplineSet
285.28515625 657.142578125 m 1
 285.28515625 800 l 1
 428.142578125 800 l 1
 428.142578125 657.142578125 l 1
 285.28515625 657.142578125 l 1
142.428710938 514.286132812 m 1
 142.428710938 657.142578125 l 1
 285.28515625 657.142578125 l 1
 285.28515625 514.286132812 l 1
 142.428710938 514.286132812 l 1
571 371.428710938 m 1
 571 228.571289062 l 1
 428.142578125 228.571289062 l 1
 428.142578125 -200 l 1
 285.28515625 -200 l 1
 285.28515625 228.571289062 l 1
 -0.4287109375 228.571289062 l 1
 -0.4287109375 371.428710938 l 1
 -0.4287109375 514.286132812 l 1
 142.428710938 514.286132812 l 1
 142.428710938 371.428710938 l 1
 285.28515625 371.428710938 l 1
 285.28515625 514.286132812 l 1
 428.142578125 514.286132812 l 1
 428.142578125 371.428710938 l 1
 571 371.428710938 l 1
EndSplineSet
Validated: 5
EndChar

StartChar: five
Encoding: 53 53 57
Width: 721
Flags: HW
LayerCount: 2
Fore
SplineSet
571 657.142578125 m 1
 142.428710938 657.142578125 l 1
 142.428710938 371.428710938 l 1
 428.142578125 371.428710938 l 1
 428.142578125 228.571289062 l 1
 142.428710938 228.571289062 l 1
 -0.4287109375 228.571289062 l 1
 -0.4287109375 657.142578125 l 1
 -0.4287109375 800 l 1
 571 800 l 1
 571 657.142578125 l 1
428.142578125 -57.142578125 m 1
 428.142578125 228.571289062 l 1
 571 228.571289062 l 1
 571 -57.142578125 l 1
 428.142578125 -57.142578125 l 1
-0.4287109375 -200 m 1
 -0.4287109375 -57.142578125 l 1
 428.142578125 -57.142578125 l 1
 428.142578125 -200 l 1
 -0.4287109375 -200 l 1
EndSplineSet
Validated: 5
EndChar

StartChar: six
Encoding: 54 54 58
Width: 721
Flags: HW
LayerCount: 2
Fore
SplineSet
142.428710938 -200 m 1
 142.428710938 -57.142578125 l 1
 428.142578125 -57.142578125 l 1
 428.142578125 -200 l 1
 142.428710938 -200 l 1
428.142578125 -57.142578125 m 1
 428.142578125 228.571289062 l 1
 571 228.571289062 l 1
 571 -57.142578125 l 1
 428.142578125 -57.142578125 l 1
571 657.142578125 m 1
 142.428710938 657.142578125 l 1
 142.428710938 371.428710938 l 1
 428.142578125 371.428710938 l 1
 428.142578125 228.571289062 l 1
 142.428710938 228.571289062 l 1
 142.428710938 -57.142578125 l 1
 -0.4287109375 -57.142578125 l 1
 -0.4287109375 228.571289062 l 1
 -0.4287109375 658.571289062 l 1
 142.428710938 658.571289062 l 1
 142.428710938 800 l 1
 571 800 l 1
 571 657.142578125 l 1
EndSplineSet
Validated: 5
EndChar

StartChar: seven
Encoding: 55 55 59
Width: 721
Flags: HW
LayerCount: 2
Fore
SplineSet
-0.4287109375 800 m 1
 571 800 l 1
 571 657.142578125 l 1
 571 514.286132812 l 1
 428.142578125 514.286132812 l 1
 428.142578125 657.142578125 l 1
 -0.4287109375 657.142578125 l 1
 -0.4287109375 800 l 1
285.28515625 371.428710938 m 1
 285.28515625 514.286132812 l 1
 428.142578125 514.286132812 l 1
 428.142578125 371.428710938 l 1
 285.28515625 371.428710938 l 1
142.428710938 -200 m 1
 142.428710938 371.428710938 l 1
 285.28515625 371.428710938 l 1
 285.28515625 -200 l 1
 142.428710938 -200 l 1
EndSplineSet
Validated: 5
EndChar

StartChar: eight
Encoding: 56 56 60
Width: 721
Flags: HW
LayerCount: 2
Fore
SplineSet
142.428710938 -200 m 1
 142.428710938 -57.142578125 l 1
 428.142578125 -57.142578125 l 1
 428.142578125 -200 l 1
 142.428710938 -200 l 1
428.142578125 -57.142578125 m 1
 428.142578125 228.571289062 l 1
 571 228.571289062 l 1
 571 -57.142578125 l 1
 428.142578125 -57.142578125 l 1
142.428710938 371.428710938 m 1
 428.142578125 371.428710938 l 1
 428.142578125 228.571289062 l 1
 142.428710938 228.571289062 l 1
 142.428710938 -57.142578125 l 1
 -0.4287109375 -57.142578125 l 1
 -0.4287109375 230 l 1
 142.428710938 230 l 1
 142.428710938 371.428710938 l 1
-0.4287109375 371.428710938 m 1
 -0.4287109375 652.857421875 l 1
 142.428710938 652.857421875 l 1
 142.428710938 371.428710938 l 1
 -0.4287109375 371.428710938 l 1
428.142578125 371.428710938 m 1
 428.142578125 657.142578125 l 1
 571 657.142578125 l 1
 571 371.428710938 l 1
 428.142578125 371.428710938 l 1
142.428710938 657.142578125 m 1
 142.428710938 800 l 1
 428.142578125 800 l 1
 428.142578125 657.142578125 l 1
 142.428710938 657.142578125 l 1
EndSplineSet
Validated: 5
EndChar

StartChar: nine
Encoding: 57 57 61
Width: 721
Flags: HW
LayerCount: 2
Fore
SplineSet
142.428710938 657.142578125 m 1
 142.428710938 800 l 1
 428.142578125 800 l 1
 428.142578125 657.142578125 l 1
 142.428710938 657.142578125 l 1
-0.4287109375 371.428710938 m 1
 -0.4287109375 655.713867188 l 1
 142.428710938 655.713867188 l 1
 142.428710938 371.428710938 l 1
 -0.4287109375 371.428710938 l 1
428.142578125 657.142578125 m 1
 571 657.142578125 l 1
 571 -57.142578125 l 1
 428.142578125 -57.142578125 l 1
 428.142578125 228.571289062 l 1
 142.428710938 228.571289062 l 1
 142.428710938 371.428710938 l 1
 428.142578125 371.428710938 l 1
 428.142578125 657.142578125 l 1
142.428710938 -200 m 1
 142.428710938 -57.142578125 l 1
 428.142578125 -57.142578125 l 1
 428.142578125 -200 l 1
 142.428710938 -200 l 1
EndSplineSet
Validated: 5
EndChar

StartChar: exclam
Encoding: 33 33 62
Width: 293
Flags: HW
LayerCount: 2
Fore
SplineSet
0.3466796875 85.306640625 m 1
 0.3466796875 800 l 1
 143 800 l 1
 143 85.306640625 l 1
 0.3466796875 85.306640625 l 1
0.3466796875 -200 m 1
 0.3466796875 -57.3466796875 l 1
 143 -57.3466796875 l 1
 143 -200 l 1
 0.3466796875 -200 l 1
EndSplineSet
Validated: 1
EndChar

StartChar: quotedbl
Encoding: 34 34 63
Width: 579
VWidth: 499
Flags: HW
LayerCount: 2
Fore
SplineSet
0.44921875 514.30078125 m 5
 0.44921875 800 l 5
 143.299804688 800 l 5
 143.299804688 514.30078125 l 5
 0.44921875 514.30078125 l 5
286.149414062 514.30078125 m 5
 286.149414062 800 l 5
 429 800 l 5
 429 514.30078125 l 5
 286.149414062 514.30078125 l 5
EndSplineSet
Validated: 1
EndChar

StartChar: numbersign
Encoding: 35 35 64
Width: 864
Flags: HW
LayerCount: 2
Fore
SplineSet
714 371.428710938 m 1
 571.142578125 371.428710938 l 1
 571.142578125 85.7138671875 l 1
 714 85.7138671875 l 1
 714 -57.142578125 l 1
 571.142578125 -57.142578125 l 1
 571.142578125 -200 l 1
 428.28515625 -200 l 1
 428.28515625 -57.142578125 l 1
 285.427734375 -57.142578125 l 1
 285.427734375 -200 l 1
 142.571289062 -200 l 1
 142.571289062 -57.142578125 l 1
 -0.2861328125 -57.142578125 l 1
 -0.2861328125 85.7138671875 l 1
 142.571289062 85.7138671875 l 1
 142.571289062 371.428710938 l 5
 -0.2861328125 371.428710938 l 5
 -0.2861328125 515.713867188 l 1
 142.571289062 515.713867188 l 1
 142.571289062 800 l 1
 285.427734375 800 l 1
 285.427734375 515.713867188 l 1
 428.28515625 515.713867188 l 1
 428.28515625 800 l 1
 571.142578125 800 l 1
 571.142578125 515.713867188 l 1
 714 515.713867188 l 1
 714 371.428710938 l 1
428.28515625 85.7138671875 m 1
 428.28515625 371.428710938 l 1
 285.427734375 371.428710938 l 1
 285.427734375 85.7138671875 l 1
 428.28515625 85.7138671875 l 1
EndSplineSet
Validated: 1
EndChar

StartChar: dollar
Encoding: 36 36 65
Width: 721
Flags: HW
LayerCount: 2
Fore
SplineSet
-0.4287109375 85.7138671875 m 1
 428.142578125 85.7138671875 l 1
 428.142578125 228.571289062 l 1
 571 228.571289062 l 1
 571 85.7138671875 l 1
 428.142578125 85.7138671875 l 1
 428.142578125 -57.142578125 l 1
 428.142578125 -200 l 1
 285.28515625 -200 l 1
 285.28515625 -57.142578125 l 1
 -0.4287109375 -57.142578125 l 1
 -0.4287109375 85.7138671875 l 1
142.428710938 228.571289062 m 1
 142.428710938 371.428710938 l 1
 428.142578125 371.428710938 l 1
 428.142578125 228.571289062 l 1
 142.428710938 228.571289062 l 1
-0.4287109375 371.428710938 m 1
 -0.4287109375 514.286132812 l 1
 142.428710938 514.286132812 l 1
 142.428710938 371.428710938 l 1
 -0.4287109375 371.428710938 l 1
571 657.142578125 m 1
 571 514.286132812 l 1
 142.428710938 514.286132812 l 1
 142.428710938 657.142578125 l 1
 285.28515625 657.142578125 l 1
 285.28515625 800 l 1
 428.142578125 800 l 1
 428.142578125 657.142578125 l 1
 571 657.142578125 l 1
EndSplineSet
Validated: 5
EndChar

StartChar: percent
Encoding: 37 37 66
Width: 721
Flags: HW
LayerCount: 2
Fore
SplineSet
-0.4287109375 657.142578125 m 1
 -0.4287109375 800 l 1
 142.428710938 800 l 1
 142.428710938 657.142578125 l 1
 -0.4287109375 657.142578125 l 1
428.142578125 514.286132812 m 1
 428.142578125 800 l 1
 571 800 l 1
 571 514.286132812 l 1
 428.142578125 514.286132812 l 1
285.28515625 228.571289062 m 1
 285.28515625 514.286132812 l 1
 428.142578125 514.286132812 l 1
 428.142578125 228.571289062 l 1
 285.28515625 228.571289062 l 1
142.428710938 -57.142578125 m 1
 142.428710938 228.571289062 l 1
 285.28515625 228.571289062 l 1
 285.28515625 -57.142578125 l 1
 142.428710938 -57.142578125 l 1
-0.4287109375 -200 m 1
 -0.4287109375 -57.142578125 l 1
 142.428710938 -57.142578125 l 1
 142.428710938 -200 l 1
 -0.4287109375 -200 l 1
428.142578125 -200 m 1
 428.142578125 -57.142578125 l 1
 571 -57.142578125 l 1
 571 -200 l 1
 428.142578125 -200 l 1
EndSplineSet
Validated: 5
EndChar

StartChar: ampersand
Encoding: 38 38 67
Width: 721
Flags: HW
LayerCount: 2
Fore
SplineSet
142.428710938 -200 m 1
 142.428710938 -57.142578125 l 1
 285.28515625 -57.142578125 l 1
 285.28515625 -200 l 1
 142.428710938 -200 l 1
428.142578125 -200 m 1
 428.142578125 -57.142578125 l 1
 571 -57.142578125 l 1
 571 -200 l 1
 428.142578125 -200 l 1
285.28515625 -57.142578125 m 1
 285.28515625 228.571289062 l 1
 428.142578125 228.571289062 l 1
 428.142578125 -57.142578125 l 1
 285.28515625 -57.142578125 l 1
-0.4287109375 -57.142578125 m 1
 -0.4287109375 225.713867188 l 1
 142.428710938 225.713867188 l 1
 142.428710938 -57.142578125 l 1
 -0.4287109375 -57.142578125 l 1
142.428710938 228.571289062 m 1
 142.428710938 371.428710938 l 1
 285.28515625 371.428710938 l 1
 285.28515625 228.571289062 l 1
 142.428710938 228.571289062 l 1
428.142578125 228.571289062 m 1
 428.142578125 371.428710938 l 1
 571 371.428710938 l 1
 571 228.571289062 l 1
 428.142578125 228.571289062 l 1
-0.4287109375 371.428710938 m 1
 -0.4287109375 657.142578125 l 1
 142.428710938 657.142578125 l 1
 142.428710938 371.428710938 l 1
 -0.4287109375 371.428710938 l 1
142.428710938 657.142578125 m 1
 142.428710938 800 l 1
 428.142578125 800 l 1
 428.142578125 657.142578125 l 1
 142.428710938 657.142578125 l 1
EndSplineSet
Validated: 5
EndChar

StartChar: quotesingle
Encoding: 39 39 68
Width: 292
VWidth: 499
Flags: HW
LayerCount: 2
Fore
SplineSet
-0.1396484375 514.30078125 m 5
 -0.1396484375 800 l 5
 142 800 l 5
 142 514.30078125 l 5
 -0.1396484375 514.30078125 l 5
EndSplineSet
Validated: 1
EndChar

StartChar: parenleft
Encoding: 40 40 69
Width: 436
Flags: HW
LayerCount: 2
Fore
SplineSet
143.143554688 657.142578125 m 1
 143.143554688 800 l 1
 286 800 l 1
 286 657.142578125 l 1
 143.143554688 657.142578125 l 1
0.2861328125 -57.142578125 m 1
 0.2861328125 657.142578125 l 1
 143.143554688 657.142578125 l 1
 143.143554688 -57.142578125 l 1
 0.2861328125 -57.142578125 l 1
143.143554688 -200 m 1
 143.143554688 -57.142578125 l 1
 286 -57.142578125 l 1
 286 -200 l 1
 143.143554688 -200 l 1
EndSplineSet
Validated: 5
EndChar

StartChar: parenright
Encoding: 41 41 70
Width: 436
Flags: HW
LayerCount: 2
Fore
SplineSet
0.2861328125 657.142578125 m 1
 0.2861328125 800 l 1
 143.143554688 800 l 1
 143.143554688 657.142578125 l 1
 0.2861328125 657.142578125 l 1
143.143554688 -57.142578125 m 1
 143.143554688 657.142578125 l 1
 286 657.142578125 l 1
 286 -57.142578125 l 1
 143.143554688 -57.142578125 l 1
0.2861328125 -200 m 1
 0.2861328125 -57.142578125 l 1
 143.143554688 -57.142578125 l 1
 143.143554688 -200 l 1
 0.2861328125 -200 l 1
EndSplineSet
Validated: 5
EndChar

StartChar: asterisk
Encoding: 42 42 71
Width: 579
VWidth: 600
Flags: HW
LayerCount: 2
Fore
SplineSet
0.400390625 657.133789062 m 1
 0.400390625 800 l 1
 143.266601562 800 l 1
 143.266601562 657.133789062 l 1
 0.400390625 657.133789062 l 1
143.266601562 514.266601562 m 1
 143.266601562 657.133789062 l 1
 286.133789062 657.133789062 l 1
 286.133789062 514.266601562 l 1
 143.266601562 514.266601562 l 1
286.133789062 371.400390625 m 1
 286.133789062 514.266601562 l 1
 429 514.266601562 l 1
 429 371.400390625 l 1
 286.133789062 371.400390625 l 1
0.400390625 371.400390625 m 1
 0.400390625 514.266601562 l 1
 143.266601562 514.266601562 l 1
 143.266601562 371.400390625 l 1
 0.400390625 371.400390625 l 1
286.133789062 657.133789062 m 1
 286.133789062 800 l 1
 429 800 l 1
 429 657.133789062 l 1
 286.133789062 657.133789062 l 1
EndSplineSet
Validated: 5
EndChar

StartChar: plus
Encoding: 43 43 72
Width: 579
VWidth: 600
Flags: HW
LayerCount: 2
Fore
SplineSet
429 370 m 1
 429 227.1328125 l 1
 286.133789062 227.1328125 l 1
 286.133789062 84.2666015625 l 1
 143.266601562 84.2666015625 l 1
 143.266601562 227.1328125 l 1
 0.400390625 227.1328125 l 1
 0.400390625 370 l 1
 143.266601562 370 l 1
 143.266601562 512.866210938 l 1
 286.133789062 512.866210938 l 1
 286.133789062 370 l 1
 429 370 l 1
EndSplineSet
Validated: 1
EndChar

StartChar: comma
Encoding: 44 44 73
Width: 293
VWidth: 499
Flags: HW
LayerCount: 2
Fore
SplineSet
0 -330 m 5
 0 -44.30078125 l 5
 142.849609375 -44.30078125 l 5
 142.849609375 -330 l 5
 0 -330 l 5
EndSplineSet
Validated: 524289
EndChar

StartChar: hyphen
Encoding: 45 45 74
Width: 579
VWidth: 400
Flags: HW
LayerCount: 2
Fore
SplineSet
0.30078125 227.099609375 m 5
 0.30078125 370 l 5
 429 370 l 5
 429 227.099609375 l 5
 0.30078125 227.099609375 l 5
EndSplineSet
Validated: 1
EndChar

StartChar: period
Encoding: 46 46 75
Width: 293
VWidth: 328
Flags: HW
LayerCount: 2
Fore
SplineSet
0.099609375 -200 m 5
 0.099609375 -57.099609375 l 5
 143 -57.099609375 l 5
 143 -200 l 5
 0.099609375 -200 l 5
EndSplineSet
Validated: 1
EndChar

StartChar: slash
Encoding: 47 47 76
Width: 721
Flags: HW
LayerCount: 2
Fore
SplineSet
142.428710938 -50 m 1
 142.428710938 228.571289062 l 1
 285.28515625 228.571289062 l 1
 285.28515625 -57.142578125 l 1
 142.428710938 -57.142578125 l 1
 142.428710938 -200 l 1
 -0.4287109375 -200 l 1
 -0.4287109375 -50 l 1
 142.428710938 -50 l 1
285.28515625 228.571289062 m 1
 285.28515625 514.286132812 l 1
 428.142578125 514.286132812 l 1
 428.142578125 228.571289062 l 1
 285.28515625 228.571289062 l 1
428.142578125 514.286132812 m 1
 428.142578125 800 l 1
 571 800 l 1
 571 514.286132812 l 1
 428.142578125 514.286132812 l 1
EndSplineSet
Validated: 5
EndChar

StartChar: colon
Encoding: 58 58 77
Width: 625
VWidth: 699
Flags: H
LayerCount: 2
Fore
SplineSet
0 -200 m 5
 0 -56.7919921875 l 5
 143.208984375 -56.7919921875 l 5
 143.208984375 -200 l 5
 0 -200 l 5
0 229.624023438 m 5
 0 371.400390625 l 5
 143.208984375 371.400390625 l 5
 143.208984375 229.624023438 l 5
 0 229.624023438 l 5
EndSplineSet
Validated: 524289
EndChar

StartChar: semicolon
Encoding: 59 59 78
Width: 742
VWidth: 800
Flags: H
LayerCount: 2
Fore
SplineSet
0 232.5859375 m 5
 0 374.30078125 l 5
 143.146484375 374.30078125 l 5
 143.146484375 232.5859375 l 5
 0 232.5859375 l 5
0 -340 m 5
 0 -50.84375 l 5
 143.146484375 -50.84375 l 5
 143.146484375 -340 l 5
 0 -340 l 5
EndSplineSet
Validated: 524289
EndChar

StartChar: less
Encoding: 60 60 79
Width: 579
VWidth: 800
Flags: HW
LayerCount: 2
Fore
SplineSet
286.139648438 571.440429688 m 5
 286.139648438 714.30078125 l 5
 429 714.30078125 l 5
 429 571.440429688 l 5
 286.139648438 571.440429688 l 5
143.280273438 428.580078125 m 5
 143.280273438 571.440429688 l 5
 286.139648438 571.440429688 l 5
 286.139648438 428.580078125 l 5
 143.280273438 428.580078125 l 5
0.419921875 285.720703125 m 5
 0.419921875 428.580078125 l 5
 143.280273438 428.580078125 l 5
 143.280273438 285.720703125 l 5
 0.419921875 285.720703125 l 5
143.280273438 142.860351562 m 5
 143.280273438 285.720703125 l 5
 286.139648438 285.720703125 l 5
 286.139648438 142.860351562 l 5
 143.280273438 142.860351562 l 5
286.139648438 0 m 5
 286.139648438 142.860351562 l 5
 429 142.860351562 l 5
 429 0 l 5
 286.139648438 0 l 5
EndSplineSet
Validated: 5
EndChar

StartChar: equal
Encoding: 61 61 80
Width: 579
VWidth: 600
Flags: HW
LayerCount: 2
Fore
SplineSet
0.400390625 80 m 5
 0.400390625 222.866210938 l 5
 429 222.866210938 l 5
 429 80 l 5
 0.400390625 80 l 5
0.400390625 365.733398438 m 5
 0.400390625 508.599609375 l 5
 429 508.599609375 l 5
 429 365.733398438 l 5
 0.400390625 365.733398438 l 5
EndSplineSet
Validated: 1
EndChar

StartChar: greater
Encoding: 62 62 81
Width: 579
VWidth: 800
Flags: HW
LayerCount: 2
Fore
SplineSet
0.419921875 571.440429688 m 5
 0.419921875 714.30078125 l 5
 143.280273438 714.30078125 l 5
 143.280273438 571.440429688 l 5
 0.419921875 571.440429688 l 5
143.280273438 428.580078125 m 5
 143.280273438 571.440429688 l 5
 286.139648438 571.440429688 l 5
 286.139648438 428.580078125 l 5
 143.280273438 428.580078125 l 5
286.139648438 285.720703125 m 5
 286.139648438 428.580078125 l 5
 429 428.580078125 l 5
 429 285.720703125 l 5
 286.139648438 285.720703125 l 5
143.280273438 142.860351562 m 5
 143.280273438 285.720703125 l 5
 286.139648438 285.720703125 l 5
 286.139648438 142.860351562 l 5
 143.280273438 142.860351562 l 5
0.419921875 0 m 5
 0.419921875 142.860351562 l 5
 143.280273438 142.860351562 l 5
 143.280273438 0 l 5
 0.419921875 0 l 5
EndSplineSet
Validated: 5
EndChar

StartChar: question
Encoding: 63 63 82
Width: 1000
Flags: H
LayerCount: 2
Fore
SplineSet
0 514.286132812 m 1
 0 657.142578125 l 1
 142.857421875 657.142578125 l 1
 142.857421875 514.286132812 l 1
 0 514.286132812 l 1
142.857421875 657.142578125 m 1
 142.857421875 800 l 1
 428.571289062 800 l 1
 428.571289062 657.142578125 l 1
 142.857421875 657.142578125 l 1
428.571289062 371.428710938 m 1
 428.571289062 657.142578125 l 1
 571.428710938 657.142578125 l 1
 571.428710938 371.428710938 l 1
 428.571289062 371.428710938 l 1
285.713867188 228.571289062 m 1
 285.713867188 371.428710938 l 1
 428.571289062 371.428710938 l 1
 428.571289062 228.571289062 l 1
 285.713867188 228.571289062 l 1
142.857421875 85.7138671875 m 1
 142.857421875 228.571289062 l 1
 285.713867188 228.571289062 l 1
 285.713867188 85.7138671875 l 1
 142.857421875 85.7138671875 l 1
142.857421875 -200 m 1
 142.857421875 -57.142578125 l 1
 285.713867188 -57.142578125 l 1
 285.713867188 -200 l 1
 142.857421875 -200 l 1
EndSplineSet
Validated: 5
EndChar

StartChar: at
Encoding: 64 64 83
Width: 721
Flags: HW
LayerCount: 2
Fore
SplineSet
428.142578125 657.142578125 m 1
 571 657.142578125 l 1
 571 371.428710938 l 1
 571 228.571289062 l 1
 285.28515625 228.571289062 l 1
 285.28515625 371.428710938 l 1
 428.142578125 371.428710938 l 1
 428.142578125 657.142578125 l 1
142.428710938 800 m 1
 428.142578125 800 l 1
 428.142578125 657.142578125 l 1
 142.428710938 657.142578125 l 1
 142.428710938 -57.142578125 l 1
 -0.4287109375 -57.142578125 l 1
 -0.4287109375 660 l 1
 142.428710938 660 l 1
 142.428710938 800 l 1
142.428710938 -200 m 1
 142.428710938 -57.142578125 l 1
 428.142578125 -57.142578125 l 1
 428.142578125 -200 l 1
 142.428710938 -200 l 1
EndSplineSet
Validated: 5
EndChar

StartChar: bracketleft
Encoding: 91 91 84
Width: 1000
Flags: H
LayerCount: 2
Fore
SplineSet
285.713867188 657.142578125 m 1
 142.857421875 657.142578125 l 1
 142.857421875 -57.142578125 l 1
 285.713867188 -57.142578125 l 1
 285.713867188 -200 l 1
 142.857421875 -200 l 1
 0 -200 l 1
 0 -57.142578125 l 1
 0 657.142578125 l 1
 0 800 l 1
 285.713867188 800 l 1
 285.713867188 657.142578125 l 1
EndSplineSet
Validated: 1
EndChar

StartChar: bracketright
Encoding: 93 93 85
Width: 1000
Flags: H
LayerCount: 2
Fore
SplineSet
0 800 m 1
 285.713867188 800 l 1
 285.713867188 657.142578125 l 1
 285.713867188 -57.142578125 l 1
 285.713867188 -200 l 1
 142.857421875 -200 l 1
 0 -200 l 1
 0 -57.142578125 l 1
 142.857421875 -57.142578125 l 1
 142.857421875 657.142578125 l 1
 0 657.142578125 l 1
 0 800 l 1
EndSplineSet
Validated: 1
EndChar

StartChar: asciicircum
Encoding: 94 94 86
Width: 821
VWidth: 499
Flags: H
LayerCount: 2
Fore
SplineSet
142.850585938 800 m 1
 285.700195312 800 l 1
 285.700195312 657.150390625 l 1
 142.850585938 657.150390625 l 1
 142.850585938 514.30078125 l 1
 0 514.30078125 l 1
 0 657.150390625 l 1
 142.850585938 657.150390625 l 1
 142.850585938 800 l 1
285.700195312 514.30078125 m 1
 285.700195312 657.150390625 l 1
 428.55078125 657.150390625 l 1
 428.55078125 514.30078125 l 1
 285.700195312 514.30078125 l 1
EndSplineSet
Validated: 5
EndChar

StartChar: underscore
Encoding: 95 95 87
Width: 705
VWidth: 400
Flags: HW
LayerCount: 2
Fore
SplineSet
0.0478515625 -200 m 1
 0.0478515625 -57.099609375 l 1
 555 -57.099609375 l 1
 555 -200 l 1
 0.0478515625 -200 l 1
EndSplineSet
Validated: 524289
EndChar

StartChar: braceleft
Encoding: 123 123 88
Width: 1000
Flags: H
LayerCount: 2
Fore
SplineSet
285.713867188 657.142578125 m 1
 285.713867188 800 l 1
 428.571289062 800 l 1
 428.571289062 657.142578125 l 1
 285.713867188 657.142578125 l 1
142.857421875 371.428710938 m 1
 142.857421875 657.142578125 l 1
 285.713867188 657.142578125 l 1
 285.713867188 371.428710938 l 1
 142.857421875 371.428710938 l 1
142.857421875 -57.142578125 m 1
 142.857421875 228.571289062 l 1
 285.713867188 228.571289062 l 1
 285.713867188 -57.142578125 l 1
 142.857421875 -57.142578125 l 1
285.713867188 -200 m 1
 285.713867188 -57.142578125 l 1
 428.571289062 -57.142578125 l 1
 428.571289062 -200 l 1
 285.713867188 -200 l 1
0 228.571289062 m 1
 0 371.428710938 l 1
 142.857421875 371.428710938 l 1
 142.857421875 228.571289062 l 1
 0 228.571289062 l 1
EndSplineSet
Validated: 5
EndChar

StartChar: bar
Encoding: 124 124 89
Width: 963
VWidth: 972
Flags: H
LayerCount: 2
Fore
SplineSet
0 -200 m 1
 0 800 l 1
 111.111328125 800 l 1
 111.111328125 -200 l 1
 0 -200 l 1
EndSplineSet
Validated: 1
EndChar

StartChar: braceright
Encoding: 125 125 90
Width: 1000
Flags: H
LayerCount: 2
Fore
SplineSet
0 657.142578125 m 1
 0 800 l 1
 142.857421875 800 l 1
 142.857421875 657.142578125 l 1
 0 657.142578125 l 1
142.857421875 371.428710938 m 1
 142.857421875 657.142578125 l 1
 285.713867188 657.142578125 l 1
 285.713867188 371.428710938 l 1
 142.857421875 371.428710938 l 1
142.857421875 -57.142578125 m 1
 142.857421875 228.571289062 l 1
 285.713867188 228.571289062 l 1
 285.713867188 -57.142578125 l 1
 142.857421875 -57.142578125 l 1
0 -200 m 1
 0 -57.142578125 l 1
 142.857421875 -57.142578125 l 1
 142.857421875 -200 l 1
 0 -200 l 1
285.713867188 228.571289062 m 1
 285.713867188 371.428710938 l 1
 428.571289062 371.428710938 l 1
 428.571289062 228.571289062 l 1
 285.713867188 228.571289062 l 1
EndSplineSet
Validated: 5
EndChar

StartChar: asciitilde
Encoding: 126 126 91
Width: 1000
VWidth: 499
Flags: H
LayerCount: 2
Fore
SplineSet
142.850585938 442.849609375 m 1
 285.700195312 442.849609375 l 1
 285.700195312 300 l 1
 142.850585938 300 l 1
 142.850585938 157.150390625 l 1
 0 157.150390625 l 1
 0 301.428710938 l 1
 142.850585938 300 l 5
 142.850585938 442.849609375 l 1
285.700195312 157.150390625 m 1
 285.700195312 300 l 1
 428.549804688 300 l 1
 428.549804688 157.150390625 l 1
 285.700195312 157.150390625 l 1
428.549804688 300 m 1
 428.549804688 442.849609375 l 1
 571.400390625 442.849609375 l 1
 571.400390625 300 l 1
 428.549804688 300 l 1
EndSplineSet
Validated: 5
EndChar

StartChar: grave
Encoding: 96 96 92
Width: 436
VWidth: 499
Flags: HW
LayerCount: 2
Fore
SplineSet
0.30078125 514.30078125 m 5
 0.30078125 657.150390625 l 5
 143.150390625 657.150390625 l 5
 143.150390625 514.30078125 l 5
 0.30078125 514.30078125 l 5
143.150390625 657.150390625 m 5
 143.150390625 800 l 5
 286 800 l 5
 286 657.150390625 l 5
 143.150390625 657.150390625 l 5
EndSplineSet
Validated: 524293
EndChar
